<mxfile host="app.diagrams.net" modified="2021-02-01T12:20:14.077Z" agent="5.0 (X11)" etag="eS_k6zWj1umsSWsM3n1v" version="14.2.9" type="github">
  <diagram id="eEsHUfCtPcGkzx7xBdVv" name="Page-1">
    <mxGraphModel dx="2177" dy="804" grid="1" gridSize="10" guides="1" tooltips="1" connect="1" arrows="1" fold="1" page="1" pageScale="1" pageWidth="827" pageHeight="1169" math="0" shadow="0">
      <root>
        <mxCell id="0" />
        <mxCell id="1" parent="0" />
        <mxCell id="dPJaqiwZWHNFZR4YzsqL-5" value="" style="rounded=0;whiteSpace=wrap;html=1;sketch=0;" parent="1" vertex="1">
          <mxGeometry x="-250" y="120" width="400" height="480" as="geometry" />
        </mxCell>
        <mxCell id="dPJaqiwZWHNFZR4YzsqL-9" value="&lt;font style=&quot;font-size: 14px&quot;&gt;KEY&lt;/font&gt;" style="rounded=0;whiteSpace=wrap;html=1;sketch=0;" parent="1" vertex="1">
          <mxGeometry x="240" y="160" width="120" height="60" as="geometry" />
        </mxCell>
        <mxCell id="dPJaqiwZWHNFZR4YzsqL-11" value="&lt;font style=&quot;font-size: 14px&quot;&gt;SEG&lt;/font&gt;" style="rounded=0;whiteSpace=wrap;html=1;sketch=0;" parent="1" vertex="1">
          <mxGeometry x="-500" y="160" width="120" height="60" as="geometry" />
        </mxCell>
        <mxCell id="dPJaqiwZWHNFZR4YzsqL-12" value="&lt;font style=&quot;font-size: 14px&quot;&gt;FLASH&lt;/font&gt;" style="rounded=0;whiteSpace=wrap;html=1;sketch=0;" parent="1" vertex="1">
          <mxGeometry x="240" y="460" width="120" height="130" as="geometry" />
        </mxCell>
        <mxCell id="dPJaqiwZWHNFZR4YzsqL-13" value="&lt;font style=&quot;font-size: 14px&quot;&gt;LED&lt;/font&gt;" style="rounded=0;whiteSpace=wrap;html=1;sketch=0;" parent="1" vertex="1">
          <mxGeometry x="-490" y="480" width="120" height="60" as="geometry" />
        </mxCell>
        <mxCell id="dPJaqiwZWHNFZR4YzsqL-15" value="" style="endArrow=classic;html=1;entryX=0;entryY=0.25;entryDx=0;entryDy=0;exitX=0.998;exitY=0.773;exitDx=0;exitDy=0;exitPerimeter=0;" parent="1" source="dPJaqiwZWHNFZR4YzsqL-5" target="dPJaqiwZWHNFZR4YzsqL-12" edge="1">
          <mxGeometry width="50" height="50" relative="1" as="geometry">
            <mxPoint x="170" y="530" as="sourcePoint" />
            <mxPoint x="220" y="480" as="targetPoint" />
          </mxGeometry>
        </mxCell>
        <mxCell id="dPJaqiwZWHNFZR4YzsqL-16" value="sclk" style="text;html=1;align=center;verticalAlign=middle;resizable=0;points=[];autosize=1;" parent="1" vertex="1">
          <mxGeometry x="170" y="470" width="40" height="20" as="geometry" />
        </mxCell>
        <mxCell id="dPJaqiwZWHNFZR4YzsqL-18" value="" style="endArrow=classic;html=1;entryX=0;entryY=0.5;entryDx=0;entryDy=0;exitX=0.998;exitY=0.835;exitDx=0;exitDy=0;exitPerimeter=0;" parent="1" source="dPJaqiwZWHNFZR4YzsqL-5" target="dPJaqiwZWHNFZR4YzsqL-12" edge="1">
          <mxGeometry width="50" height="50" relative="1" as="geometry">
            <mxPoint x="165" y="570" as="sourcePoint" />
            <mxPoint x="215" y="520" as="targetPoint" />
          </mxGeometry>
        </mxCell>
        <mxCell id="dPJaqiwZWHNFZR4YzsqL-19" value="mosi" style="text;html=1;align=center;verticalAlign=middle;resizable=0;points=[];autosize=1;" parent="1" vertex="1">
          <mxGeometry x="170" y="500" width="40" height="20" as="geometry" />
        </mxCell>
        <mxCell id="dPJaqiwZWHNFZR4YzsqL-21" value="miso" style="text;html=1;align=center;verticalAlign=middle;resizable=0;points=[];autosize=1;" parent="1" vertex="1">
          <mxGeometry x="170" y="530" width="40" height="20" as="geometry" />
        </mxCell>
        <mxCell id="dPJaqiwZWHNFZR4YzsqL-22" value="" style="endArrow=classic;html=1;exitX=-0.033;exitY=0.7;exitDx=0;exitDy=0;exitPerimeter=0;entryX=1.003;entryY=0.892;entryDx=0;entryDy=0;entryPerimeter=0;" parent="1" source="dPJaqiwZWHNFZR4YzsqL-12" target="dPJaqiwZWHNFZR4YzsqL-5" edge="1">
          <mxGeometry width="50" height="50" relative="1" as="geometry">
            <mxPoint x="240" y="546" as="sourcePoint" />
            <mxPoint x="140" y="546" as="targetPoint" />
          </mxGeometry>
        </mxCell>
        <mxCell id="dPJaqiwZWHNFZR4YzsqL-23" value="" style="endArrow=classic;html=1;entryX=-0.017;entryY=0.938;entryDx=0;entryDy=0;exitX=1.005;exitY=0.954;exitDx=0;exitDy=0;exitPerimeter=0;entryPerimeter=0;" parent="1" source="dPJaqiwZWHNFZR4YzsqL-5" target="dPJaqiwZWHNFZR4YzsqL-12" edge="1">
          <mxGeometry width="50" height="50" relative="1" as="geometry">
            <mxPoint x="150" y="580" as="sourcePoint" />
            <mxPoint x="230" y="650" as="targetPoint" />
          </mxGeometry>
        </mxCell>
        <mxCell id="dPJaqiwZWHNFZR4YzsqL-24" value="cs" style="text;html=1;align=center;verticalAlign=middle;resizable=0;points=[];autosize=1;" parent="1" vertex="1">
          <mxGeometry x="180" y="560" width="30" height="20" as="geometry" />
        </mxCell>
        <mxCell id="dPJaqiwZWHNFZR4YzsqL-25" value="" style="ellipse;whiteSpace=wrap;html=1;aspect=fixed;rounded=0;sketch=0;rotation=-90;" parent="1" vertex="1">
          <mxGeometry x="250" y="580" width="10" height="10" as="geometry" />
        </mxCell>
        <mxCell id="dPJaqiwZWHNFZR4YzsqL-27" value="" style="whiteSpace=wrap;html=1;rounded=0;sketch=0;" parent="1" vertex="1">
          <mxGeometry x="-120" y="280" width="270" height="320" as="geometry" />
        </mxCell>
        <mxCell id="dPJaqiwZWHNFZR4YzsqL-26" value="spi_master" style="whiteSpace=wrap;html=1;rounded=0;sketch=0;" parent="1" vertex="1">
          <mxGeometry x="30" y="460" width="120" height="140" as="geometry" />
        </mxCell>
        <mxCell id="dPJaqiwZWHNFZR4YzsqL-31" value="" style="endArrow=classic;html=1;entryX=0.008;entryY=0.107;entryDx=0;entryDy=0;entryPerimeter=0;exitX=0.333;exitY=0.609;exitDx=0;exitDy=0;exitPerimeter=0;" parent="1" source="dPJaqiwZWHNFZR4YzsqL-27" target="dPJaqiwZWHNFZR4YzsqL-26" edge="1">
          <mxGeometry width="50" height="50" relative="1" as="geometry">
            <mxPoint x="-50" y="500" as="sourcePoint" />
            <mxPoint y="450" as="targetPoint" />
          </mxGeometry>
        </mxCell>
        <mxCell id="dPJaqiwZWHNFZR4YzsqL-32" value="tx_data[7:0]" style="text;html=1;align=center;verticalAlign=middle;resizable=0;points=[];autosize=1;" parent="1" vertex="1">
          <mxGeometry x="-60" y="450" width="80" height="20" as="geometry" />
        </mxCell>
        <mxCell id="dPJaqiwZWHNFZR4YzsqL-33" value="" style="endArrow=classic;html=1;entryX=0;entryY=0.357;entryDx=0;entryDy=0;entryPerimeter=0;" parent="1" target="dPJaqiwZWHNFZR4YzsqL-26" edge="1">
          <mxGeometry width="50" height="50" relative="1" as="geometry">
            <mxPoint x="-30" y="510" as="sourcePoint" />
            <mxPoint x="-10" y="530" as="targetPoint" />
            <Array as="points">
              <mxPoint x="-30" y="510" />
            </Array>
          </mxGeometry>
        </mxCell>
        <mxCell id="dPJaqiwZWHNFZR4YzsqL-34" value="byte_req" style="text;html=1;align=center;verticalAlign=middle;resizable=0;points=[];autosize=1;" parent="1" vertex="1">
          <mxGeometry x="-31" y="490" width="60" height="20" as="geometry" />
        </mxCell>
        <mxCell id="dPJaqiwZWHNFZR4YzsqL-35" value="" style="endArrow=classic;html=1;entryX=0;entryY=0.5;entryDx=0;entryDy=0;" parent="1" target="dPJaqiwZWHNFZR4YzsqL-26" edge="1">
          <mxGeometry width="50" height="50" relative="1" as="geometry">
            <mxPoint x="-20" y="530" as="sourcePoint" />
            <mxPoint x="-20" y="530" as="targetPoint" />
            <Array as="points">
              <mxPoint x="-30" y="530" />
              <mxPoint x="-20" y="530" />
            </Array>
          </mxGeometry>
        </mxCell>
        <mxCell id="dPJaqiwZWHNFZR4YzsqL-36" value="" style="endArrow=classic;html=1;exitX=0.25;exitY=0;exitDx=0;exitDy=0;entryX=0.667;entryY=0.344;entryDx=0;entryDy=0;entryPerimeter=0;" parent="1" source="dPJaqiwZWHNFZR4YzsqL-26" target="dPJaqiwZWHNFZR4YzsqL-27" edge="1">
          <mxGeometry width="50" height="50" relative="1" as="geometry">
            <mxPoint x="80" y="420" as="sourcePoint" />
            <mxPoint x="130" y="370" as="targetPoint" />
          </mxGeometry>
        </mxCell>
        <mxCell id="dPJaqiwZWHNFZR4YzsqL-38" value="&lt;font style=&quot;font-size: 14px&quot;&gt;flash_ctrl&lt;/font&gt;" style="rounded=0;whiteSpace=wrap;html=1;sketch=0;fillColor=#f8cecc;strokeColor=#b85450;" parent="1" vertex="1">
          <mxGeometry x="-120" y="280" width="120" height="60" as="geometry" />
        </mxCell>
        <mxCell id="dPJaqiwZWHNFZR4YzsqL-40" value="rx_data[7:0]" style="text;html=1;align=center;verticalAlign=middle;resizable=0;points=[];autosize=1;rotation=90;" parent="1" vertex="1">
          <mxGeometry y="400" width="80" height="20" as="geometry" />
        </mxCell>
        <mxCell id="dPJaqiwZWHNFZR4YzsqL-41" value="" style="endArrow=classic;html=1;exitX=0.75;exitY=0;exitDx=0;exitDy=0;" parent="1" source="dPJaqiwZWHNFZR4YzsqL-26" edge="1">
          <mxGeometry width="50" height="50" relative="1" as="geometry">
            <mxPoint x="80" y="420" as="sourcePoint" />
            <mxPoint x="120" y="390" as="targetPoint" />
            <Array as="points">
              <mxPoint x="120" y="390" />
            </Array>
          </mxGeometry>
        </mxCell>
        <mxCell id="dPJaqiwZWHNFZR4YzsqL-43" value="tx_byte_end" style="text;html=1;align=center;verticalAlign=middle;resizable=0;points=[];autosize=1;rotation=90;" parent="1" vertex="1">
          <mxGeometry x="95" y="410" width="80" height="20" as="geometry" />
        </mxCell>
        <mxCell id="dPJaqiwZWHNFZR4YzsqL-70" value="" style="endArrow=classic;html=1;entryX=0.213;entryY=0.002;entryDx=0;entryDy=0;entryPerimeter=0;" parent="1" target="dPJaqiwZWHNFZR4YzsqL-5" edge="1">
          <mxGeometry width="50" height="50" relative="1" as="geometry">
            <mxPoint x="-350" y="80" as="sourcePoint" />
            <mxPoint x="-290" y="40" as="targetPoint" />
            <Array as="points">
              <mxPoint x="-165" y="80" />
            </Array>
          </mxGeometry>
        </mxCell>
        <mxCell id="dPJaqiwZWHNFZR4YzsqL-71" value="sys_clk" style="text;html=1;align=center;verticalAlign=middle;resizable=0;points=[];autosize=1;" parent="1" vertex="1">
          <mxGeometry x="-230" y="90" width="50" height="20" as="geometry" />
        </mxCell>
        <mxCell id="dPJaqiwZWHNFZR4YzsqL-72" value="" style="endArrow=classic;html=1;entryX=0.623;entryY=0.004;entryDx=0;entryDy=0;entryPerimeter=0;exitX=0.75;exitY=0;exitDx=0;exitDy=0;" parent="1" source="dPJaqiwZWHNFZR4YzsqL-9" target="dPJaqiwZWHNFZR4YzsqL-5" edge="1">
          <mxGeometry width="50" height="50" relative="1" as="geometry">
            <mxPoint x="-180" y="40" as="sourcePoint" />
            <mxPoint x="10" y="20" as="targetPoint" />
            <Array as="points">
              <mxPoint x="330" y="40" />
              <mxPoint x="-1" y="40" />
            </Array>
          </mxGeometry>
        </mxCell>
        <mxCell id="dPJaqiwZWHNFZR4YzsqL-73" value="rst_n" style="text;html=1;align=center;verticalAlign=middle;resizable=0;points=[];autosize=1;" parent="1" vertex="1">
          <mxGeometry x="-50" y="70" width="40" height="20" as="geometry" />
        </mxCell>
        <mxCell id="dPJaqiwZWHNFZR4YzsqL-75" value="cmd[2:0]" style="text;html=1;align=center;verticalAlign=middle;resizable=0;points=[];autosize=1;" parent="1" vertex="1">
          <mxGeometry x="-190" y="450" width="60" height="20" as="geometry" />
        </mxCell>
        <mxCell id="dPJaqiwZWHNFZR4YzsqL-76" value="" style="shape=flexArrow;endArrow=classic;html=1;entryX=1.003;entryY=0.125;entryDx=0;entryDy=0;entryPerimeter=0;exitX=-0.025;exitY=0.367;exitDx=0;exitDy=0;exitPerimeter=0;" parent="1" source="dPJaqiwZWHNFZR4YzsqL-9" target="dPJaqiwZWHNFZR4YzsqL-5" edge="1">
          <mxGeometry width="50" height="50" relative="1" as="geometry">
            <mxPoint x="440" y="350" as="sourcePoint" />
            <mxPoint x="490" y="300" as="targetPoint" />
          </mxGeometry>
        </mxCell>
        <mxCell id="dPJaqiwZWHNFZR4YzsqL-77" value="key[2:0]" style="text;html=1;align=center;verticalAlign=middle;resizable=0;points=[];autosize=1;" parent="1" vertex="1">
          <mxGeometry x="180" y="140" width="60" height="20" as="geometry" />
        </mxCell>
        <mxCell id="dPJaqiwZWHNFZR4YzsqL-78" value="&lt;font style=&quot;font-size: 14px&quot;&gt;top&lt;/font&gt;" style="rounded=0;whiteSpace=wrap;html=1;sketch=0;fillColor=#f8cecc;strokeColor=#b85450;" parent="1" vertex="1">
          <mxGeometry x="-250" y="120" width="120" height="60" as="geometry" />
        </mxCell>
        <mxCell id="dPJaqiwZWHNFZR4YzsqL-79" value="" style="endArrow=classic;html=1;entryX=0.007;entryY=0.284;entryDx=0;entryDy=0;entryPerimeter=0;exitX=0.1;exitY=0.523;exitDx=0;exitDy=0;exitPerimeter=0;" parent="1" source="dPJaqiwZWHNFZR4YzsqL-5" target="dPJaqiwZWHNFZR4YzsqL-27" edge="1">
          <mxGeometry width="50" height="50" relative="1" as="geometry">
            <mxPoint x="-210" y="410" as="sourcePoint" />
            <mxPoint x="-160" y="360" as="targetPoint" />
          </mxGeometry>
        </mxCell>
        <mxCell id="dPJaqiwZWHNFZR4YzsqL-80" value="&lt;font style=&quot;font-size: 12px&quot;&gt;tx_data[7:0]&lt;/font&gt;" style="text;html=1;align=center;verticalAlign=middle;resizable=0;points=[];autosize=1;" parent="1" vertex="1">
          <mxGeometry x="-200" y="350" width="80" height="20" as="geometry" />
        </mxCell>
        <mxCell id="dPJaqiwZWHNFZR4YzsqL-81" value="" style="endArrow=classic;html=1;exitX=0.583;exitY=0;exitDx=0;exitDy=0;exitPerimeter=0;" parent="1" source="dPJaqiwZWHNFZR4YzsqL-38" edge="1">
          <mxGeometry width="50" height="50" relative="1" as="geometry">
            <mxPoint x="-100" y="270" as="sourcePoint" />
            <mxPoint x="-50" y="220" as="targetPoint" />
          </mxGeometry>
        </mxCell>
        <mxCell id="dPJaqiwZWHNFZR4YzsqL-82" value="rx_data[7:0]" style="text;html=1;align=center;verticalAlign=middle;resizable=0;points=[];autosize=1;rotation=1;" parent="1" vertex="1">
          <mxGeometry x="-140" y="240" width="80" height="20" as="geometry" />
        </mxCell>
        <mxCell id="dPJaqiwZWHNFZR4YzsqL-83" value="" style="endArrow=classic;html=1;entryX=-0.004;entryY=0.447;entryDx=0;entryDy=0;entryPerimeter=0;exitX=0.125;exitY=0.631;exitDx=0;exitDy=0;exitPerimeter=0;" parent="1" source="dPJaqiwZWHNFZR4YzsqL-5" target="dPJaqiwZWHNFZR4YzsqL-27" edge="1">
          <mxGeometry width="50" height="50" relative="1" as="geometry">
            <mxPoint x="-190" y="480" as="sourcePoint" />
            <mxPoint x="-140" y="430" as="targetPoint" />
          </mxGeometry>
        </mxCell>
        <mxCell id="dPJaqiwZWHNFZR4YzsqL-84" value="req" style="text;html=1;align=center;verticalAlign=middle;resizable=0;points=[];autosize=1;" parent="1" vertex="1">
          <mxGeometry x="-180" y="400" width="30" height="20" as="geometry" />
        </mxCell>
        <mxCell id="dPJaqiwZWHNFZR4YzsqL-85" value="" style="endArrow=classic;html=1;entryX=-0.011;entryY=0.606;entryDx=0;entryDy=0;entryPerimeter=0;" parent="1" target="dPJaqiwZWHNFZR4YzsqL-27" edge="1">
          <mxGeometry width="50" height="50" relative="1" as="geometry">
            <mxPoint x="-190" y="474" as="sourcePoint" />
            <mxPoint x="-160" y="480" as="targetPoint" />
            <Array as="points">
              <mxPoint x="-200" y="474" />
              <mxPoint x="-190" y="474" />
            </Array>
          </mxGeometry>
        </mxCell>
        <mxCell id="dPJaqiwZWHNFZR4YzsqL-86" value="op_end" style="text;html=1;align=center;verticalAlign=middle;resizable=0;points=[];autosize=1;" parent="1" vertex="1">
          <mxGeometry x="-40" y="240" width="60" height="20" as="geometry" />
        </mxCell>
        <mxCell id="dPJaqiwZWHNFZR4YzsqL-87" value="" style="endArrow=classic;html=1;exitX=0.5;exitY=0;exitDx=0;exitDy=0;" parent="1" source="dPJaqiwZWHNFZR4YzsqL-27" edge="1">
          <mxGeometry width="50" height="50" relative="1" as="geometry">
            <mxPoint x="40" y="260" as="sourcePoint" />
            <mxPoint x="15" y="220" as="targetPoint" />
            <Array as="points">
              <mxPoint x="15" y="230" />
            </Array>
          </mxGeometry>
        </mxCell>
        <mxCell id="dPJaqiwZWHNFZR4YzsqL-88" value="" style="endArrow=classic;html=1;entryX=0;entryY=0.75;entryDx=0;entryDy=0;" parent="1" target="dPJaqiwZWHNFZR4YzsqL-27" edge="1">
          <mxGeometry width="50" height="50" relative="1" as="geometry">
            <mxPoint x="-200" y="520" as="sourcePoint" />
            <mxPoint x="-150" y="520" as="targetPoint" />
            <Array as="points">
              <mxPoint x="-200" y="520" />
            </Array>
          </mxGeometry>
        </mxCell>
        <mxCell id="dPJaqiwZWHNFZR4YzsqL-89" value="address[23:0]" style="text;html=1;align=center;verticalAlign=middle;resizable=0;points=[];autosize=1;" parent="1" vertex="1">
          <mxGeometry x="-210" y="490" width="90" height="20" as="geometry" />
        </mxCell>
        <mxCell id="dPJaqiwZWHNFZR4YzsqL-90" value="en" style="text;html=1;align=center;verticalAlign=middle;resizable=0;points=[];autosize=1;" parent="1" vertex="1">
          <mxGeometry x="-20" y="515" width="30" height="20" as="geometry" />
        </mxCell>
        <mxCell id="dPJaqiwZWHNFZR4YzsqL-93" value="tx_byte_end" style="text;html=1;align=center;verticalAlign=middle;resizable=0;points=[];autosize=1;" parent="1" vertex="1">
          <mxGeometry x="29" y="240" width="80" height="20" as="geometry" />
        </mxCell>
        <mxCell id="dPJaqiwZWHNFZR4YzsqL-95" value="" style="endArrow=classic;html=1;exitX=0.852;exitY=0;exitDx=0;exitDy=0;exitPerimeter=0;" parent="1" source="dPJaqiwZWHNFZR4YzsqL-27" edge="1">
          <mxGeometry width="50" height="50" relative="1" as="geometry">
            <mxPoint x="70" y="260" as="sourcePoint" />
            <mxPoint x="110" y="220" as="targetPoint" />
            <Array as="points">
              <mxPoint x="110" y="230" />
            </Array>
          </mxGeometry>
        </mxCell>
        <mxCell id="32gQ6iK9bgQS2-sApS-T-1" value="&lt;div&gt;key1:读ID&lt;/div&gt;&lt;div&gt;&lt;br&gt;&lt;/div&gt;&lt;div&gt;key2:页写&lt;/div&gt;&lt;div&gt;&lt;br&gt;&lt;/div&gt;&lt;div&gt;key3：读&lt;br&gt;&lt;/div&gt;" style="text;html=1;align=center;verticalAlign=middle;resizable=0;points=[];autosize=1;" parent="1" vertex="1">
          <mxGeometry x="379" y="140" width="70" height="80" as="geometry" />
        </mxCell>
        <mxCell id="3jIq3aP93rQiVtIUX7W1-1" value="" style="endArrow=classic;html=1;entryX=0.007;entryY=0.866;entryDx=0;entryDy=0;entryPerimeter=0;" edge="1" parent="1" target="dPJaqiwZWHNFZR4YzsqL-27">
          <mxGeometry width="50" height="50" relative="1" as="geometry">
            <mxPoint x="-190" y="557" as="sourcePoint" />
            <mxPoint x="-140" y="540" as="targetPoint" />
            <Array as="points">
              <mxPoint x="-200" y="557" />
              <mxPoint x="-190" y="557" />
            </Array>
          </mxGeometry>
        </mxCell>
        <mxCell id="3jIq3aP93rQiVtIUX7W1-2" value="rx_req" style="text;html=1;align=center;verticalAlign=middle;resizable=0;points=[];autosize=1;" vertex="1" parent="1">
          <mxGeometry x="-190" y="535" width="50" height="20" as="geometry" />
        </mxCell>
      </root>
    </mxGraphModel>
  </diagram>
</mxfile>
